<?xml version="1.0" encoding="UTF-8" standalone="no"?>
<!DOCTYPE svg PUBLIC "-//W3C//DTD SVG 1.1//EN"
 "http://www.w3.org/Graphics/SVG/1.1/DTD/svg11.dtd">
<!-- Generated by graphviz version 2.38.0 (20140413.2041)
 -->
<!-- Title: tracking Pages: 1 -->
<svg width="612pt" height="439pt"
 viewBox="0.00 0.00 612.14 439.00" xmlns="http://www.w3.org/2000/svg" xmlns:xlink="http://www.w3.org/1999/xlink">
<g id="graph0" class="graph" transform="scale(1 1) rotate(0) translate(4 435)">
<title>tracking</title>
<polygon fill="white" stroke="none" points="-4,4 -4,-435 608.136,-435 608.136,4 -4,4"/>
<!-- start -->
<g id="node1" class="node"><title>start</title>
<path fill="none" stroke="black" d="M104.136,-431C104.136,-431 74.1355,-431 74.1355,-431 68.1355,-431 62.1355,-425 62.1355,-419 62.1355,-419 62.1355,-407 62.1355,-407 62.1355,-401 68.1355,-395 74.1355,-395 74.1355,-395 104.136,-395 104.136,-395 110.136,-395 116.136,-401 116.136,-407 116.136,-407 116.136,-419 116.136,-419 116.136,-425 110.136,-431 104.136,-431"/>
<text text-anchor="middle" x="89.1355" y="-409.3" font-family="Times New Roman,serif" font-size="14.00">start</text>
</g>
<!-- pull_opt -->
<g id="node2" class="node"><title>pull_opt</title>
<polygon fill="none" stroke="black" points="125.822,-358 67.4619,-358 52.4488,-322 110.809,-322 125.822,-358"/>
<text text-anchor="middle" x="89.1355" y="-338.1" font-family="Consolas" font-size="8.00">&#45;&#45;pull</text>
</g>
<!-- start&#45;&gt;pull_opt -->
<g id="edge1" class="edge"><title>start&#45;&gt;pull_opt</title>
<path fill="none" stroke="black" d="M89.1355,-394.813C89.1355,-386.789 89.1355,-377.047 89.1355,-368.069"/>
<polygon fill="black" stroke="black" points="92.6356,-368.029 89.1355,-358.029 85.6356,-368.029 92.6356,-368.029"/>
</g>
<!-- get_origin -->
<g id="node3" class="node"><title>get_origin</title>
<polygon fill="none" stroke="black" points="212.636,-277.5 87.6355,-277.5 87.6355,-239.5 212.636,-239.5 212.636,-277.5"/>
<text text-anchor="middle" x="150.136" y="-262.3" font-family="Times New Roman,serif" font-size="14.00">Get latest</text>
<text text-anchor="middle" x="150.136" y="-247.3" font-family="Times New Roman,serif" font-size="14.00">version information</text>
</g>
<!-- pull_opt&#45;&gt;get_origin -->
<g id="edge2" class="edge"><title>pull_opt&#45;&gt;get_origin</title>
<path fill="none" stroke="black" d="M102.372,-321.75C110.436,-311.24 120.901,-297.601 129.979,-285.77"/>
<polygon fill="black" stroke="black" points="132.979,-287.609 136.29,-277.544 127.426,-283.347 132.979,-287.609"/>
</g>
<!-- is_update -->
<g id="node4" class="node"><title>is_update</title>
<polygon fill="none" stroke="black" points="146.136,-195 76.1355,-142 146.136,-89 216.136,-142 146.136,-195"/>
<text text-anchor="middle" x="146.136" y="-153.3" font-family="Times New Roman,serif" font-size="14.00">latest</text>
<text text-anchor="middle" x="146.136" y="-138.3" font-family="Times New Roman,serif" font-size="14.00">!=</text>
<text text-anchor="middle" x="146.136" y="-123.3" font-family="Times New Roman,serif" font-size="14.00">approved</text>
</g>
<!-- get_origin&#45;&gt;is_update -->
<g id="edge3" class="edge"><title>get_origin&#45;&gt;is_update:n</title>
<path fill="none" stroke="black" d="M148.369,-239.468C147.532,-229.723 146.64,-217.221 146.289,-205.064"/>
<polygon fill="black" stroke="black" points="149.788,-204.945 146.136,-195 142.789,-205.052 149.788,-204.945"/>
</g>
<!-- is_update&#45;&gt;pull_opt -->
<g id="edge4" class="edge"><title>is_update:w&#45;&gt;pull_opt:w</title>
<path fill="none" stroke="black" d="M75.1355,-142C-9.53019,-142 -27.7172,-324.091 48.7962,-339.028"/>
<polygon fill="black" stroke="black" points="48.8518,-342.549 59.1355,-340 49.507,-335.579 48.8518,-342.549"/>
<text text-anchor="middle" x="19.1355" y="-254.8" font-family="Times New Roman,serif" font-size="14.00">False</text>
</g>
<!-- store_pulled -->
<g id="node5" class="node"><title>store_pulled</title>
<polygon fill="none" stroke="black" points="234.636,-38 115.636,-38 115.636,-0 234.636,-0 234.636,-38"/>
<text text-anchor="middle" x="175.136" y="-22.8" font-family="Times New Roman,serif" font-size="14.00">Store latest</text>
<text text-anchor="middle" x="175.136" y="-7.8" font-family="Times New Roman,serif" font-size="14.00">in &#39;pulled&#39; attribute</text>
</g>
<!-- is_update&#45;&gt;store_pulled -->
<g id="edge5" class="edge"><title>is_update:s&#45;&gt;store_pulled</title>
<path fill="none" stroke="black" d="M146.136,-89C146.136,-74.3998 151.722,-59.3239 157.991,-47.0023"/>
<polygon fill="black" stroke="black" points="161.095,-48.621 162.837,-38.1703 154.958,-45.2538 161.095,-48.621"/>
<text text-anchor="middle" x="167.636" y="-59.8" font-family="Times New Roman,serif" font-size="14.00">True</text>
</g>
<!-- fetch_opt -->
<g id="node6" class="node"><title>fetch_opt</title>
<polygon fill="none" stroke="black" points="331.975,-358 268.599,-358 252.296,-322 315.672,-322 331.975,-358"/>
<text text-anchor="middle" x="292.136" y="-338.1" font-family="Consolas" font-size="8.00">&#45;&#45;fetch</text>
</g>
<!-- store_pulled&#45;&gt;fetch_opt -->
<g id="edge6" class="edge"><title>store_pulled:e&#45;&gt;fetch_opt:w</title>
<path fill="none" stroke="black" d="M236.136,-19C303.88,-19 199.746,-307.037 249.363,-337.416"/>
<polygon fill="black" stroke="black" points="248.573,-340.827 259.136,-340 250.362,-334.06 248.573,-340.827"/>
</g>
<!-- fetch -->
<g id="node7" class="node"><title>fetch</title>
<polygon fill="none" stroke="black" points="408.136,-277.5 272.136,-277.5 272.136,-239.5 408.136,-239.5 408.136,-277.5"/>
<text text-anchor="middle" x="340.136" y="-262.3" font-family="Times New Roman,serif" font-size="14.00">Get version installer</text>
<text text-anchor="middle" x="340.136" y="-247.3" font-family="Times New Roman,serif" font-size="14.00">from &#39;pulled&#39; attribute</text>
</g>
<!-- fetch_opt&#45;&gt;fetch -->
<g id="edge7" class="edge"><title>fetch_opt&#45;&gt;fetch</title>
<path fill="none" stroke="black" d="M302.551,-321.75C308.835,-311.342 316.971,-297.866 324.066,-286.115"/>
<polygon fill="black" stroke="black" points="327.068,-287.914 329.241,-277.544 321.076,-284.296 327.068,-287.914"/>
</g>
<!-- store_fetched -->
<g id="node8" class="node"><title>store_fetched</title>
<polygon fill="none" stroke="black" points="420.136,-168.5 292.136,-168.5 292.136,-115.5 420.136,-115.5 420.136,-168.5"/>
<text text-anchor="middle" x="356.136" y="-153.3" font-family="Times New Roman,serif" font-size="14.00">Move object</text>
<text text-anchor="middle" x="356.136" y="-138.3" font-family="Times New Roman,serif" font-size="14.00">from &#39;pulled&#39;</text>
<text text-anchor="middle" x="356.136" y="-123.3" font-family="Times New Roman,serif" font-size="14.00">to &#39;fetched&#39; attribute</text>
</g>
<!-- fetch&#45;&gt;store_fetched -->
<g id="edge8" class="edge"><title>fetch&#45;&gt;store_fetched</title>
<path fill="none" stroke="black" d="M342.671,-239.357C344.937,-223.14 348.324,-198.904 351.133,-178.796"/>
<polygon fill="black" stroke="black" points="354.624,-179.11 352.541,-168.722 347.691,-178.141 354.624,-179.11"/>
</g>
<!-- approve_opt -->
<g id="node9" class="node"><title>approve_opt</title>
<polygon fill="none" stroke="black" points="536.445,-358 461.186,-358 441.826,-322 517.085,-322 536.445,-358"/>
<text text-anchor="middle" x="489.136" y="-338.1" font-family="Consolas" font-size="8.00">&#45;&#45;approve</text>
</g>
<!-- store_fetched&#45;&gt;approve_opt -->
<g id="edge9" class="edge"><title>store_fetched:e&#45;&gt;approve_opt:w</title>
<path fill="none" stroke="black" d="M421.136,-142C506.253,-142 373.552,-323.35 439.95,-338.935"/>
<polygon fill="black" stroke="black" points="439.826,-342.441 450.136,-340 440.554,-335.479 439.826,-342.441"/>
</g>
<!-- store_approved -->
<g id="node10" class="node"><title>store_approved</title>
<polygon fill="none" stroke="black" points="604.136,-285 464.136,-285 464.136,-232 604.136,-232 604.136,-285"/>
<text text-anchor="middle" x="534.136" y="-269.8" font-family="Times New Roman,serif" font-size="14.00">Move object</text>
<text text-anchor="middle" x="534.136" y="-254.8" font-family="Times New Roman,serif" font-size="14.00">from &#39;fetched&#39;</text>
<text text-anchor="middle" x="534.136" y="-239.8" font-family="Times New Roman,serif" font-size="14.00">to &#39;approved&#39; attribute</text>
</g>
<!-- approve_opt&#45;&gt;store_approved -->
<g id="edge10" class="edge"><title>approve_opt&#45;&gt;store_approved</title>
<path fill="none" stroke="black" d="M498.9,-321.75C503.484,-313.652 509.119,-303.696 514.528,-294.141"/>
<polygon fill="black" stroke="black" points="517.722,-295.603 519.602,-285.176 511.63,-292.154 517.722,-295.603"/>
</g>
<!-- end -->
<g id="node11" class="node"><title>end</title>
<path fill="none" stroke="black" d="M549.136,-160C549.136,-160 519.136,-160 519.136,-160 513.136,-160 507.136,-154 507.136,-148 507.136,-148 507.136,-136 507.136,-136 507.136,-130 513.136,-124 519.136,-124 519.136,-124 549.136,-124 549.136,-124 555.136,-124 561.136,-130 561.136,-136 561.136,-136 561.136,-148 561.136,-148 561.136,-154 555.136,-160 549.136,-160"/>
<text text-anchor="middle" x="534.136" y="-138.3" font-family="Times New Roman,serif" font-size="14.00">end</text>
</g>
<!-- store_approved&#45;&gt;end -->
<g id="edge11" class="edge"><title>store_approved&#45;&gt;end</title>
<path fill="none" stroke="black" d="M534.136,-231.804C534.136,-213.505 534.136,-188.952 534.136,-170.301"/>
<polygon fill="black" stroke="black" points="537.636,-170.093 534.136,-160.093 530.636,-170.094 537.636,-170.093"/>
</g>
</g>
</svg>
