<?xml version="1.0" encoding="UTF-8" standalone="no"?>
<!DOCTYPE svg PUBLIC "-//W3C//DTD SVG 1.1//EN"
 "http://www.w3.org/Graphics/SVG/1.1/DTD/svg11.dtd">
<!-- Generated by graphviz version 2.38.0 (20140413.2041)
 -->
<!-- Title: parsing Pages: 1 -->
<svg width="676pt" height="479pt"
 viewBox="0.00 0.00 676.14 479.00" xmlns="http://www.w3.org/2000/svg" xmlns:xlink="http://www.w3.org/1999/xlink">
<g id="graph0" class="graph" transform="scale(1 1) rotate(0) translate(4 475)">
<title>parsing</title>
<polygon fill="white" stroke="none" points="-4,4 -4,-475 672.142,-475 672.142,4 -4,4"/>
<!-- NULL -->
<g id="node1" class="node"><title>NULL</title>
<ellipse fill="none" stroke="black" cx="364.142" cy="-453" rx="34.394" ry="18"/>
<text text-anchor="middle" x="364.142" y="-449.3" font-family="Times New Roman,serif" font-size="14.00">NULL</text>
</g>
<!-- CONTENT -->
<g id="node2" class="node"><title>CONTENT</title>
<ellipse fill="none" stroke="black" cx="364.142" cy="-366" rx="53.8905" ry="18"/>
<text text-anchor="middle" x="364.142" y="-362.3" font-family="Times New Roman,serif" font-size="14.00">CONTENT</text>
</g>
<!-- NULL&#45;&gt;CONTENT -->
<g id="edge1" class="edge"><title>NULL&#45;&gt;CONTENT</title>
<path fill="none" stroke="black" d="M338.622,-440.735C322,-431.644 304.823,-417.799 313.142,-402 316.163,-396.263 320.596,-391.286 325.606,-387.028"/>
<polygon fill="black" stroke="black" points="327.888,-389.693 333.836,-380.925 323.718,-384.071 327.888,-389.693"/>
<text text-anchor="start" x="313.142" y="-405.8" font-family="Times New Roman,serif" font-size="14.00">div id=content</text>
</g>
<!-- CONTENT&#45;&gt;NULL -->
<g id="edge3" class="edge"><title>CONTENT&#45;&gt;NULL</title>
<path fill="none" stroke="black" d="M383.536,-383.277C392.267,-392.666 399.705,-404.967 395.142,-417 393.479,-421.388 390.985,-425.579 388.122,-429.438"/>
<polygon fill="black" stroke="black" points="385.247,-427.417 381.441,-437.305 390.582,-431.948 385.247,-427.417"/>
<text text-anchor="middle" x="452.142" y="-405.8" font-family="Times New Roman,serif" font-size="14.00">_is_content_ending</text>
</g>
<!-- RELEASES_LIST -->
<g id="node3" class="node"><title>RELEASES_LIST</title>
<ellipse fill="none" stroke="black" cx="364.142" cy="-279" rx="79.8859" ry="18"/>
<text text-anchor="middle" x="364.142" y="-275.3" font-family="Times New Roman,serif" font-size="14.00">RELEASES_LIST</text>
</g>
<!-- CONTENT&#45;&gt;RELEASES_LIST -->
<g id="edge2" class="edge"><title>CONTENT&#45;&gt;RELEASES_LIST</title>
<path fill="none" stroke="black" d="M317.281,-356.75C302.23,-351.642 287.14,-343.375 278.142,-330 267.953,-314.853 280.84,-303.689 299.484,-295.803"/>
<polygon fill="black" stroke="black" points="300.911,-299.006 309.024,-292.192 298.432,-292.459 300.911,-299.006"/>
<text text-anchor="middle" x="354.142" y="-318.8" font-family="Times New Roman,serif" font-size="14.00">_is_releases_list_beginning</text>
</g>
<!-- RELEASES_LIST&#45;&gt;CONTENT -->
<g id="edge4" class="edge"><title>RELEASES_LIST&#45;&gt;CONTENT</title>
<path fill="none" stroke="black" d="M407.25,-294.275C416.342,-299.357 424.794,-306.109 430.142,-315 438.521,-328.927 426.625,-340.305 410.729,-348.669"/>
<polygon fill="black" stroke="black" points="409.126,-345.556 401.59,-353.003 412.125,-351.881 409.126,-345.556"/>
<text text-anchor="middle" x="501.142" y="-318.8" font-family="Times New Roman,serif" font-size="14.00">_is_releases_list_ending</text>
</g>
<!-- RELEASE_ID -->
<g id="node4" class="node"><title>RELEASE_ID</title>
<ellipse fill="none" stroke="black" cx="183.142" cy="-192" rx="64.189" ry="18"/>
<text text-anchor="middle" x="183.142" y="-188.3" font-family="Times New Roman,serif" font-size="14.00">RELEASE_ID</text>
</g>
<!-- RELEASES_LIST&#45;&gt;RELEASE_ID -->
<g id="edge5" class="edge"><title>RELEASES_LIST&#45;&gt;RELEASE_ID</title>
<path fill="none" stroke="black" d="M287.152,-273.822C260.277,-269.135 231.32,-260.094 209.142,-243 201.485,-237.098 195.866,-228.303 191.851,-219.727"/>
<polygon fill="black" stroke="black" points="195.017,-218.223 187.978,-210.305 188.543,-220.884 195.017,-218.223"/>
<text text-anchor="middle" x="279.642" y="-231.8" font-family="Times New Roman,serif" font-size="14.00">_is_release_id_beginning</text>
</g>
<!-- RELEASE_NOTES -->
<g id="node5" class="node"><title>RELEASE_NOTES</title>
<ellipse fill="none" stroke="black" cx="85.1424" cy="-105" rx="85.2851" ry="18"/>
<text text-anchor="middle" x="85.1424" y="-101.3" font-family="Times New Roman,serif" font-size="14.00">RELEASE_NOTES</text>
</g>
<!-- RELEASE_ID&#45;&gt;RELEASE_NOTES -->
<g id="edge6" class="edge"><title>RELEASE_ID&#45;&gt;RELEASE_NOTES</title>
<path fill="none" stroke="black" d="M125.97,-183.713C109.459,-178.656 93.2004,-170.177 83.1424,-156 78.5287,-149.497 77.4802,-141.23 78.0337,-133.3"/>
<polygon fill="black" stroke="black" points="81.5199,-133.65 79.5188,-123.246 74.595,-132.627 81.5199,-133.65"/>
<text text-anchor="middle" x="129.142" y="-144.8" font-family="Times New Roman,serif" font-size="14.00">_is_new_release</text>
</g>
<!-- IGNORE -->
<g id="node6" class="node"><title>IGNORE</title>
<ellipse fill="none" stroke="black" cx="268.142" cy="-105" rx="45.4919" ry="18"/>
<text text-anchor="middle" x="268.142" y="-101.3" font-family="Times New Roman,serif" font-size="14.00">IGNORE</text>
</g>
<!-- RELEASE_ID&#45;&gt;IGNORE -->
<g id="edge7" class="edge"><title>RELEASE_ID&#45;&gt;IGNORE</title>
<path fill="none" stroke="black" d="M179.078,-173.838C177.626,-163.469 177.69,-150.472 184.142,-141 192.087,-129.337 204.714,-121.552 217.788,-116.359"/>
<polygon fill="black" stroke="black" points="219.046,-119.627 227.327,-113.017 216.732,-113.02 219.046,-119.627"/>
<text text-anchor="middle" x="267.142" y="-144.8" font-family="Times New Roman,serif" font-size="14.00">_is_old_or_unknown_release</text>
</g>
<!-- FETCHING -->
<g id="node7" class="node"><title>FETCHING</title>
<ellipse fill="none" stroke="black" cx="379.142" cy="-18" rx="55.7903" ry="18"/>
<text text-anchor="middle" x="379.142" y="-14.3" font-family="Times New Roman,serif" font-size="14.00">FETCHING</text>
</g>
<!-- RELEASE_NOTES&#45;&gt;FETCHING -->
<g id="edge8" class="edge"><title>RELEASE_NOTES&#45;&gt;FETCHING</title>
<path fill="none" stroke="black" d="M133.361,-90.0592C187.344,-74.452 274.405,-49.2813 329.113,-33.4642"/>
<polygon fill="black" stroke="black" points="330.303,-36.7638 338.937,-30.624 328.358,-30.0392 330.303,-36.7638"/>
<text text-anchor="middle" x="330.142" y="-57.8" font-family="Times New Roman,serif" font-size="14.00">_is_release_notes_beginning</text>
</g>
<!-- IGNORE&#45;&gt;RELEASES_LIST -->
<g id="edge11" class="edge"><title>IGNORE&#45;&gt;RELEASES_LIST</title>
<path fill="none" stroke="black" d="M307.884,-113.788C323.489,-118.898 340.048,-127.288 350.142,-141 373.623,-172.895 372.578,-220.878 368.915,-250.773"/>
<polygon fill="black" stroke="black" points="365.417,-250.514 367.488,-260.905 372.349,-251.491 365.417,-250.514"/>
<text text-anchor="middle" x="443.142" y="-188.3" font-family="Times New Roman,serif" font-size="14.00">_is_release_notes_ending</text>
</g>
<!-- IGNORE&#45;&gt;IGNORE -->
<g id="edge10" class="edge"><title>IGNORE&#45;&gt;IGNORE</title>
<path fill="none" stroke="black" d="M309.365,-112.863C321.866,-112.666 331.638,-110.045 331.638,-105 331.638,-101.453 326.807,-99.1039 319.593,-97.9534"/>
<polygon fill="black" stroke="black" points="319.612,-94.4439 309.365,-97.137 319.055,-101.422 319.612,-94.4439"/>
<text text-anchor="middle" x="411.638" y="-101.3" font-family="Times New Roman,serif" font-size="14.00">_is_release_notes_beginning</text>
</g>
<!-- FETCHING&#45;&gt;RELEASES_LIST -->
<g id="edge9" class="edge"><title>FETCHING&#45;&gt;RELEASES_LIST</title>
<path fill="none" stroke="black" d="M417.65,-31.0788C444.789,-41.5778 479.793,-59.4911 500.142,-87 514.366,-106.228 536.514,-183.409 519.142,-210 500.58,-238.414 467.216,-255.031 436.185,-264.711"/>
<polygon fill="black" stroke="black" points="434.835,-261.459 426.214,-267.617 436.794,-268.18 434.835,-261.459"/>
<text text-anchor="middle" x="596.142" y="-144.8" font-family="Times New Roman,serif" font-size="14.00">_is_release_notes_ending</text>
</g>
</g>
</svg>
