<?xml version="1.0" encoding="UTF-8" standalone="no"?>
<!DOCTYPE svg PUBLIC "-//W3C//DTD SVG 1.1//EN"
 "http://www.w3.org/Graphics/SVG/1.1/DTD/svg11.dtd">
<!-- Generated by graphviz version 2.38.0 (20140413.2041)
 -->
<!-- Title: parsing Pages: 1 -->
<svg width="515pt" height="353pt"
 viewBox="0.00 0.00 514.64 353.31" xmlns="http://www.w3.org/2000/svg" xmlns:xlink="http://www.w3.org/1999/xlink">
<g id="graph0" class="graph" transform="scale(1 1) rotate(0) translate(4 349.309)">
<title>parsing</title>
<polygon fill="white" stroke="none" points="-4,4 -4,-349.309 510.64,-349.309 510.64,4 -4,4"/>
<!-- NULL -->
<g id="node1" class="node"><title>NULL</title>
<ellipse fill="none" stroke="black" cx="278.64" cy="-336.116" rx="27" ry="9.38889"/>
<text text-anchor="middle" x="278.64" y="-333.616" font-family="Bell MT" font-size="10.00">NULL</text>
</g>
<!-- CONTENT -->
<g id="node2" class="node"><title>CONTENT</title>
<ellipse fill="none" stroke="black" cx="278.64" cy="-270.731" rx="38.7821" ry="9.38889"/>
<text text-anchor="middle" x="278.64" y="-268.231" font-family="Bell MT" font-size="10.00">CONTENT</text>
</g>
<!-- NULL&#45;&gt;CONTENT -->
<g id="edge1" class="edge"><title>NULL&#45;&gt;CONTENT</title>
<path fill="none" stroke="black" d="M261.615,-328.934C252.765,-324.749 242.753,-318.258 237.64,-308.924 232.193,-298.981 240.472,-290.304 250.984,-283.837"/>
<polygon fill="black" stroke="black" points="252.935,-286.763 260.087,-278.946 249.621,-280.596 252.935,-286.763"/>
<text text-anchor="start" x="237.64" y="-300.924" font-family="Bell MT" font-size="10.00">div id=content</text>
</g>
<!-- CONTENT&#45;&gt;NULL -->
<g id="edge3" class="edge"><title>CONTENT&#45;&gt;NULL</title>
<path fill="none" stroke="black" d="M287.627,-279.932C294.489,-287.235 302.209,-298.367 298.64,-308.924 297.43,-312.501 295.515,-315.975 293.338,-319.16"/>
<polygon fill="black" stroke="black" points="290.4,-317.23 286.88,-327.223 295.864,-321.606 290.4,-317.23"/>
<text text-anchor="middle" x="340.14" y="-300.924" font-family="Bell MT" font-size="10.00">_is_content_ending</text>
</g>
<!-- RELEASES_LIST -->
<g id="node3" class="node"><title>RELEASES_LIST</title>
<ellipse fill="none" stroke="black" cx="278.64" cy="-205.347" rx="59.2941" ry="9.38889"/>
<text text-anchor="middle" x="278.64" y="-202.847" font-family="Bell MT" font-size="10.00">RELEASES_LIST</text>
</g>
<!-- CONTENT&#45;&gt;RELEASES_LIST -->
<g id="edge2" class="edge"><title>CONTENT&#45;&gt;RELEASES_LIST</title>
<path fill="none" stroke="black" d="M248.816,-264.757C225.553,-259.482 198.988,-249.513 210.64,-232.539 215.58,-225.342 222.797,-220.122 230.705,-216.336"/>
<polygon fill="black" stroke="black" points="232.235,-219.493 240.21,-212.518 229.626,-212.998 232.235,-219.493"/>
<text text-anchor="middle" x="268.14" y="-235.539" font-family="Bell MT" font-size="10.00">_is_releases_list_beginning</text>
</g>
<!-- RELEASES_LIST&#45;&gt;CONTENT -->
<g id="edge4" class="edge"><title>RELEASES_LIST&#45;&gt;CONTENT</title>
<path fill="none" stroke="black" d="M301.796,-213.923C317.189,-220.326 333.283,-230.53 325.64,-243.539 322.015,-249.708 316.352,-254.53 310.195,-258.259"/>
<polygon fill="black" stroke="black" points="308.304,-255.295 301.001,-262.97 311.496,-261.525 308.304,-255.295"/>
<text text-anchor="middle" x="378.64" y="-235.539" font-family="Bell MT" font-size="10.00">_is_releases_list_ending</text>
</g>
<!-- RELEASE_ID -->
<g id="node4" class="node"><title>RELEASE_ID</title>
<ellipse fill="none" stroke="black" cx="142.64" cy="-139.962" rx="48.1667" ry="9.38889"/>
<text text-anchor="middle" x="142.64" y="-137.462" font-family="Bell MT" font-size="10.00">RELEASE_ID</text>
</g>
<!-- RELEASES_LIST&#45;&gt;RELEASE_ID -->
<g id="edge5" class="edge"><title>RELEASES_LIST&#45;&gt;RELEASE_ID</title>
<path fill="none" stroke="black" d="M234.339,-199.151C204.756,-194.874 169.226,-187.92 157.64,-178.154 151.98,-173.384 148.434,-166.162 146.222,-159.346"/>
<polygon fill="black" stroke="black" points="149.553,-158.236 143.733,-149.383 142.761,-159.933 149.553,-158.236"/>
<text text-anchor="middle" x="211.14" y="-170.154" font-family="Bell MT" font-size="10.00">_is_release_id_beginning</text>
</g>
<!-- RELEASE_NOTES -->
<g id="node5" class="node"><title>RELEASE_NOTES</title>
<ellipse fill="none" stroke="black" cx="63.6396" cy="-74.5772" rx="63.7795" ry="9.38889"/>
<text text-anchor="middle" x="63.6396" y="-72.0772" font-family="Bell MT" font-size="10.00">RELEASE_NOTES</text>
</g>
<!-- RELEASE_ID&#45;&gt;RELEASE_NOTES -->
<g id="edge6" class="edge"><title>RELEASE_ID&#45;&gt;RELEASE_NOTES</title>
<path fill="none" stroke="black" d="M105.575,-134.072C91.9994,-130.401 77.7469,-123.983 68.6396,-112.77 64.4295,-107.586 62.7893,-100.591 62.3358,-94.0658"/>
<polygon fill="black" stroke="black" points="65.837,-93.97 62.4492,-83.9314 58.8375,-93.8916 65.837,-93.97"/>
<text text-anchor="middle" x="102.64" y="-104.77" font-family="Bell MT" font-size="10.00">_is_new_release</text>
</g>
<!-- IGNORE -->
<g id="node6" class="node"><title>IGNORE</title>
<ellipse fill="none" stroke="black" cx="201.64" cy="-74.5772" rx="32.5538" ry="9.38889"/>
<text text-anchor="middle" x="201.64" y="-72.0772" font-family="Bell MT" font-size="10.00">IGNORE</text>
</g>
<!-- RELEASE_ID&#45;&gt;IGNORE -->
<g id="edge7" class="edge"><title>RELEASE_ID&#45;&gt;IGNORE</title>
<path fill="none" stroke="black" d="M140.483,-130.52C138.933,-122.444 137.989,-110.268 143.64,-101.77 149.133,-93.5069 157.91,-87.8181 166.99,-83.9141"/>
<polygon fill="black" stroke="black" points="168.249,-87.1807 176.438,-80.4588 165.844,-80.6065 168.249,-87.1807"/>
<text text-anchor="middle" x="204.14" y="-104.77" font-family="Bell MT" font-size="10.00">_is_old_or_unknown_release</text>
</g>
<!-- FETCHING -->
<g id="node7" class="node"><title>FETCHING</title>
<ellipse fill="none" stroke="black" cx="291.64" cy="-9.19239" rx="41.0244" ry="9.38889"/>
<text text-anchor="middle" x="291.64" y="-6.69239" font-family="Bell MT" font-size="10.00">FETCHING</text>
</g>
<!-- RELEASE_NOTES&#45;&gt;FETCHING -->
<g id="edge8" class="edge"><title>RELEASE_NOTES&#45;&gt;FETCHING</title>
<path fill="none" stroke="black" d="M90.2403,-66.1821C131.958,-54.5844 212.701,-32.1376 258.259,-19.4723"/>
<polygon fill="black" stroke="black" points="259.263,-22.826 267.96,-16.7754 257.388,-16.0818 259.263,-22.826"/>
<text text-anchor="middle" x="258.64" y="-39.3848" font-family="Bell MT" font-size="10.00">_is_release_notes_beginning</text>
</g>
<!-- IGNORE&#45;&gt;RELEASES_LIST -->
<g id="edge11" class="edge"><title>IGNORE&#45;&gt;RELEASES_LIST</title>
<path fill="none" stroke="black" d="M227.786,-80.0931C240.86,-83.7286 255.75,-90.226 264.64,-101.77 283.41,-126.144 283.339,-163.781 281.23,-186.048"/>
<polygon fill="black" stroke="black" points="277.735,-185.797 280.031,-196.141 284.687,-186.623 277.735,-185.797"/>
<text text-anchor="middle" x="334.64" y="-137.462" font-family="Bell MT" font-size="10.00">_is_release_notes_ending</text>
</g>
<!-- IGNORE&#45;&gt;IGNORE -->
<g id="edge10" class="edge"><title>IGNORE&#45;&gt;IGNORE</title>
<path fill="none" stroke="black" d="M227.117,-80.3662C240.291,-81.2569 252.167,-79.3272 252.167,-74.5772 252.167,-71.0889 245.762,-69.1216 237.142,-68.6754"/>
<polygon fill="black" stroke="black" points="237.077,-65.1758 227.117,-68.7881 237.156,-72.1753 237.077,-65.1758"/>
<text text-anchor="middle" x="312.167" y="-72.0772" font-family="Bell MT" font-size="10.00">_is_release_notes_beginning</text>
</g>
<!-- FETCHING&#45;&gt;RELEASES_LIST -->
<g id="edge9" class="edge"><title>FETCHING&#45;&gt;RELEASES_LIST</title>
<path fill="none" stroke="black" d="M312.878,-17.1972C333.926,-25.31 365.314,-40.8021 381.64,-65.3848 405.899,-101.913 402.432,-131.873 391.64,-149.154 376.53,-173.35 347.409,-187.225 322.514,-195.011"/>
<polygon fill="black" stroke="black" points="321.501,-191.66 312.867,-197.8 323.445,-198.385 321.501,-191.66"/>
<text text-anchor="middle" x="453.64" y="-104.77" font-family="Bell MT" font-size="10.00">_is_release_notes_ending</text>
</g>
</g>
</svg>
