<?xml version="1.0" encoding="UTF-8" standalone="no"?>
<!DOCTYPE svg PUBLIC "-//W3C//DTD SVG 1.1//EN"
 "http://www.w3.org/Graphics/SVG/1.1/DTD/svg11.dtd">
<!-- Generated by graphviz version 2.38.0 (20140413.2041)
 -->
<!-- Title: tracking Pages: 1 -->
<svg width="466pt" height="330pt"
 viewBox="0.00 0.00 465.80 330.00" xmlns="http://www.w3.org/2000/svg" xmlns:xlink="http://www.w3.org/1999/xlink">
<g id="graph0" class="graph" transform="scale(1 1) rotate(0) translate(4 326)">
<title>tracking</title>
<polygon fill="white" stroke="none" points="-4,4 -4,-326 461.804,-326 461.804,4 -4,4"/>
<!-- start -->
<g id="node1" class="node"><title>start</title>
<path fill="none" stroke="black" d="M94.9711,-322C94.9711,-322 49.6378,-322 49.6378,-322 47.4711,-322 45.3044,-319.833 45.3044,-317.667 45.3044,-317.667 45.3044,-313.333 45.3044,-313.333 45.3044,-311.167 47.4711,-309 49.6378,-309 49.6378,-309 94.9711,-309 94.9711,-309 97.1378,-309 99.3044,-311.167 99.3044,-313.333 99.3044,-313.333 99.3044,-317.667 99.3044,-317.667 99.3044,-319.833 97.1378,-322 94.9711,-322"/>
<text text-anchor="middle" x="72.3044" y="-313" font-family="Bell MT" font-size="10.00">start</text>
</g>
<!-- pull_opt -->
<g id="node3" class="node"><title>pull_opt</title>
<polygon fill="none" stroke="black" points="107.805,-272 51.3313,-272 36.8034,-250 93.2776,-250 107.805,-272"/>
<text text-anchor="middle" x="72.3044" y="-259.1" font-family="Consolas" font-size="8.00">&#45;&#45;pull</text>
</g>
<!-- start&#45;&gt;pull_opt -->
<g id="edge1" class="edge"><title>start&#45;&gt;pull_opt</title>
<path fill="none" stroke="black" d="M72.3044,-308.882C72.3044,-302.501 72.3044,-291.726 72.3044,-282.115"/>
<polygon fill="black" stroke="black" points="75.8045,-282.053 72.3044,-272.053 68.8045,-282.053 75.8045,-282.053"/>
</g>
<!-- end -->
<g id="node2" class="node"><title>end</title>
<path fill="none" stroke="black" d="M432.971,-112.5C432.971,-112.5 387.638,-112.5 387.638,-112.5 385.471,-112.5 383.304,-110.333 383.304,-108.167 383.304,-108.167 383.304,-103.833 383.304,-103.833 383.304,-101.667 385.471,-99.5 387.638,-99.5 387.638,-99.5 432.971,-99.5 432.971,-99.5 435.138,-99.5 437.304,-101.667 437.304,-103.833 437.304,-103.833 437.304,-108.167 437.304,-108.167 437.304,-110.333 435.138,-112.5 432.971,-112.5"/>
<text text-anchor="middle" x="410.304" y="-103.5" font-family="Bell MT" font-size="10.00">end</text>
</g>
<!-- get_origin -->
<g id="node6" class="node"><title>get_origin</title>
<polygon fill="none" stroke="black" points="155.304,-207.5 69.3044,-207.5 69.3044,-183.5 155.304,-183.5 155.304,-207.5"/>
<text text-anchor="middle" x="112.304" y="-198.5" font-family="Bell MT" font-size="10.00">Get latest</text>
<text text-anchor="middle" x="112.304" y="-187.5" font-family="Bell MT" font-size="10.00">version information</text>
</g>
<!-- pull_opt&#45;&gt;get_origin -->
<g id="edge2" class="edge"><title>pull_opt&#45;&gt;get_origin</title>
<path fill="none" stroke="black" d="M78.7311,-249.798C84.3902,-240.814 92.7944,-227.472 99.7784,-216.385"/>
<polygon fill="black" stroke="black" points="102.851,-218.074 105.219,-207.747 96.9281,-214.343 102.851,-218.074"/>
</g>
<!-- fetch_opt -->
<g id="node4" class="node"><title>fetch_opt</title>
<polygon fill="none" stroke="black" points="266.598,-272 204.091,-272 188.011,-250 250.518,-250 266.598,-272"/>
<text text-anchor="middle" x="227.304" y="-259.1" font-family="Consolas" font-size="8.00">&#45;&#45;fetch</text>
</g>
<!-- fetch -->
<g id="node9" class="node"><title>fetch</title>
<polygon fill="none" stroke="black" points="306.304,-207.5 212.304,-207.5 212.304,-183.5 306.304,-183.5 306.304,-207.5"/>
<text text-anchor="middle" x="259.304" y="-198.5" font-family="Bell MT" font-size="10.00">Get version installer</text>
<text text-anchor="middle" x="259.304" y="-187.5" font-family="Bell MT" font-size="10.00">from &#39;pulled&#39; attribute</text>
</g>
<!-- fetch_opt&#45;&gt;fetch -->
<g id="edge7" class="edge"><title>fetch_opt&#45;&gt;fetch</title>
<path fill="none" stroke="black" d="M232.446,-249.798C236.928,-240.904 243.562,-227.739 249.116,-216.718"/>
<polygon fill="black" stroke="black" points="252.262,-218.253 253.636,-207.747 246.011,-215.102 252.262,-218.253"/>
</g>
<!-- approve_opt -->
<g id="node5" class="node"><title>approve_opt</title>
<polygon fill="none" stroke="black" points="431.26,-272 353.382,-272 333.349,-250 411.226,-250 431.26,-272"/>
<text text-anchor="middle" x="382.304" y="-259.1" font-family="Consolas" font-size="8.00">&#45;&#45;approve</text>
</g>
<!-- store_approved -->
<g id="node11" class="node"><title>store_approved</title>
<polygon fill="none" stroke="black" points="457.804,-213 362.804,-213 362.804,-178 457.804,-178 457.804,-213"/>
<text text-anchor="middle" x="410.304" y="-204" font-family="Bell MT" font-size="10.00">Move object</text>
<text text-anchor="middle" x="410.304" y="-193" font-family="Bell MT" font-size="10.00">from &#39;fetched&#39;</text>
<text text-anchor="middle" x="410.304" y="-182" font-family="Bell MT" font-size="10.00">to &#39;approved&#39; attribute</text>
</g>
<!-- approve_opt&#45;&gt;store_approved -->
<g id="edge10" class="edge"><title>approve_opt&#45;&gt;store_approved</title>
<path fill="none" stroke="black" d="M386.803,-249.798C390.049,-242.435 394.586,-232.146 398.809,-222.57"/>
<polygon fill="black" stroke="black" points="402.035,-223.928 402.868,-213.366 395.63,-221.104 402.035,-223.928"/>
</g>
<!-- is_update -->
<g id="node7" class="node"><title>is_update</title>
<polygon fill="none" stroke="black" points="111.304,-141 66.3044,-106 111.304,-71 156.304,-106 111.304,-141"/>
<text text-anchor="middle" x="111.304" y="-114.5" font-family="Bell MT" font-size="10.00">latest</text>
<text text-anchor="middle" x="111.304" y="-103.5" font-family="Bell MT" font-size="10.00">!=</text>
<text text-anchor="middle" x="111.304" y="-92.5" font-family="Bell MT" font-size="10.00">approved</text>
</g>
<!-- get_origin&#45;&gt;is_update -->
<g id="edge3" class="edge"><title>get_origin&#45;&gt;is_update:n</title>
<path fill="none" stroke="black" d="M111.977,-183.435C111.751,-175.068 111.472,-163.039 111.358,-151.227"/>
<polygon fill="black" stroke="black" points="114.856,-150.982 111.304,-141 107.857,-151.018 114.856,-150.982"/>
</g>
<!-- is_update&#45;&gt;pull_opt -->
<g id="edge4" class="edge"><title>is_update:w&#45;&gt;pull_opt:w</title>
<path fill="none" stroke="black" d="M65.3044,-106C-0.666167,-106 -24.7833,-245.083 32.0528,-259.752"/>
<polygon fill="black" stroke="black" points="31.9548,-263.266 42.3044,-261 32.8005,-256.317 31.9548,-263.266"/>
<text text-anchor="middle" x="14.3044" y="-193" font-family="Bell MT" font-size="10.00">False</text>
</g>
<!-- store_pulled -->
<g id="node8" class="node"><title>store_pulled</title>
<polygon fill="none" stroke="black" points="176.304,-24 92.3044,-24 92.3044,-0 176.304,-0 176.304,-24"/>
<text text-anchor="middle" x="134.304" y="-15" font-family="Bell MT" font-size="10.00">Store latest</text>
<text text-anchor="middle" x="134.304" y="-4" font-family="Bell MT" font-size="10.00">in &#39;pulled&#39; attribute</text>
</g>
<!-- is_update&#45;&gt;store_pulled -->
<g id="edge5" class="edge"><title>is_update:s&#45;&gt;store_pulled</title>
<path fill="none" stroke="black" d="M111.304,-71C111.304,-57.7305 116.571,-43.8796 122.064,-33.0422"/>
<polygon fill="black" stroke="black" points="125.264,-34.4869 127.027,-24.0398 119.134,-31.1071 125.264,-34.4869"/>
<text text-anchor="middle" x="128.804" y="-45" font-family="Bell MT" font-size="10.00">True</text>
</g>
<!-- store_pulled&#45;&gt;fetch_opt -->
<g id="edge6" class="edge"><title>store_pulled:e&#45;&gt;fetch_opt:w</title>
<path fill="none" stroke="black" d="M177.304,-12C228.867,-12 151.312,-227.215 184.717,-257.48"/>
<polygon fill="black" stroke="black" points="183.711,-260.839 194.304,-261 186.123,-254.268 183.711,-260.839"/>
</g>
<!-- store_fetched -->
<g id="node10" class="node"><title>store_fetched</title>
<polygon fill="none" stroke="black" points="318.304,-123.5 232.304,-123.5 232.304,-88.5 318.304,-88.5 318.304,-123.5"/>
<text text-anchor="middle" x="275.304" y="-114.5" font-family="Bell MT" font-size="10.00">Move object</text>
<text text-anchor="middle" x="275.304" y="-103.5" font-family="Bell MT" font-size="10.00">from &#39;pulled&#39;</text>
<text text-anchor="middle" x="275.304" y="-92.5" font-family="Bell MT" font-size="10.00">to &#39;fetched&#39; attribute</text>
</g>
<!-- fetch&#45;&gt;store_fetched -->
<g id="edge8" class="edge"><title>fetch&#45;&gt;store_fetched</title>
<path fill="none" stroke="black" d="M261.331,-183.418C263.593,-171.045 267.337,-150.572 270.38,-133.93"/>
<polygon fill="black" stroke="black" points="273.9,-134.137 272.256,-123.67 267.014,-132.878 273.9,-134.137"/>
</g>
<!-- store_fetched&#45;&gt;approve_opt -->
<g id="edge9" class="edge"><title>store_fetched:e&#45;&gt;approve_opt:w</title>
<path fill="none" stroke="black" d="M319.304,-106C385.003,-106 285.238,-243.939 332.192,-259.565"/>
<polygon fill="black" stroke="black" points="331.912,-263.06 342.304,-261 332.896,-256.129 331.912,-263.06"/>
</g>
<!-- store_approved&#45;&gt;end -->
<g id="edge11" class="edge"><title>store_approved&#45;&gt;end</title>
<path fill="none" stroke="black" d="M410.304,-177.629C410.304,-161.8 410.304,-138.305 410.304,-122.825"/>
<polygon fill="black" stroke="black" points="413.805,-122.809 410.304,-112.809 406.805,-122.809 413.805,-122.809"/>
</g>
</g>
</svg>
